# Blender v2.79 (sub 0) OBJ File: 'arrow.blend'
# www.blender.org
o Cylinder.001
v 0.000000 2.876030 -0.205153
v 0.000000 -2.876030 -0.205153
v 0.040023 2.876030 -0.201211
v 0.040023 -2.876030 -0.201211
v 0.078509 2.876030 -0.189537
v 0.078509 -2.876030 -0.189537
v 0.113977 2.876030 -0.170578
v 0.113977 -2.876030 -0.170578
v 0.145065 2.876030 -0.145065
v 0.145065 -2.876030 -0.145065
v 0.170578 2.876030 -0.113977
v 0.170578 -2.876030 -0.113977
v 0.189537 2.876030 -0.078509
v 0.189537 -2.876030 -0.078509
v 0.201211 2.876030 -0.040023
v 0.201211 -2.876030 -0.040023
v 0.205153 2.876030 -0.000000
v 0.205153 -2.876030 -0.000000
v 0.201211 2.876030 0.040023
v 0.201211 -2.876030 0.040023
v 0.189537 2.876030 0.078509
v 0.189537 -2.876030 0.078509
v 0.170578 2.876030 0.113977
v 0.170578 -2.876030 0.113977
v 0.145065 2.876030 0.145065
v 0.145065 -2.876030 0.145065
v 0.113977 2.876030 0.170578
v 0.113977 -2.876030 0.170578
v 0.078509 2.876030 0.189537
v 0.078509 -2.876030 0.189537
v 0.040023 2.876030 0.201211
v 0.040023 -2.876030 0.201211
v -0.000000 2.876030 0.205153
v -0.000000 -2.876030 0.205153
v -0.040023 2.876030 0.201211
v -0.040023 -2.876030 0.201211
v -0.078509 2.876030 0.189537
v -0.078509 -2.876030 0.189537
v -0.113977 2.876030 0.170578
v -0.113977 -2.876030 0.170578
v -0.145065 2.876030 0.145065
v -0.145065 -2.876030 0.145065
v -0.170579 2.876030 0.113977
v -0.170579 -2.876030 0.113977
v -0.189537 2.876030 0.078508
v -0.189537 -2.876030 0.078508
v -0.201211 2.876030 0.040023
v -0.201211 -2.876030 0.040023
v -0.205153 2.876030 -0.000000
v -0.205153 -2.876030 -0.000000
v -0.201211 2.876030 -0.040024
v -0.201211 -2.876030 -0.040024
v -0.189537 2.876030 -0.078509
v -0.189537 -2.876030 -0.078509
v -0.170578 2.876030 -0.113977
v -0.170578 -2.876030 -0.113977
v -0.145065 2.876030 -0.145065
v -0.145065 -2.876030 -0.145065
v -0.113977 2.876030 -0.170579
v -0.113977 -2.876030 -0.170579
v -0.078508 2.876030 -0.189537
v -0.078508 -2.876030 -0.189537
v -0.040023 2.876030 -0.201211
v -0.040023 -2.876030 -0.201211
v 0.040023 -2.876030 -0.201211
v 0.000000 -2.876030 -0.205153
v 0.078509 -2.876030 -0.189537
v 0.113977 -2.876030 -0.170578
v 0.145065 -2.876030 -0.145065
v 0.170578 -2.876030 -0.113977
v 0.189537 -2.876030 -0.078509
v 0.201211 -2.876030 -0.040023
v 0.205153 -2.876030 -0.000000
v 0.201211 -2.876030 0.040023
v 0.189537 -2.876030 0.078509
v 0.170578 -2.876030 0.113977
v 0.145065 -2.876030 0.145065
v 0.113977 -2.876030 0.170578
v 0.078509 -2.876030 0.189537
v 0.040023 -2.876030 0.201211
v -0.000000 -2.876030 0.205153
v -0.040023 -2.876030 0.201211
v -0.078509 -2.876030 0.189537
v -0.113977 -2.876030 0.170578
v -0.145065 -2.876030 0.145065
v -0.170579 -2.876030 0.113977
v -0.189537 -2.876030 0.078508
v -0.201211 -2.876030 0.040023
v -0.205153 -2.876030 -0.000000
v -0.201211 -2.876030 -0.040024
v -0.189537 -2.876030 -0.078509
v -0.170578 -2.876030 -0.113977
v -0.145065 -2.876030 -0.145065
v -0.113977 -2.876030 -0.170579
v -0.078508 -2.876030 -0.189537
v -0.040023 -2.876030 -0.201211
v -0.000000 2.876030 -0.805548
v 0.157155 2.876030 -0.790070
v 0.308270 2.876030 -0.744230
v 0.447539 2.876030 -0.669789
v 0.569609 2.876030 -0.569609
v 0.669789 2.876030 -0.447539
v 0.744230 2.876030 -0.308270
v 0.790070 2.876030 -0.157155
v 0.805548 2.876030 0.000000
v 0.790070 2.876030 0.157155
v 0.744230 2.876030 0.308270
v 0.669789 2.876030 0.447539
v 0.569609 2.876030 0.569609
v 0.447539 2.876030 0.669789
v 0.308270 2.876030 0.744230
v 0.157154 2.876030 0.790070
v -0.000000 2.876030 0.805549
v -0.157155 2.876030 0.790070
v -0.308270 2.876030 0.744230
v -0.447539 2.876030 0.669789
v -0.569609 2.876030 0.569609
v -0.669789 2.876030 0.447538
v -0.744230 2.876030 0.308270
v -0.790070 2.876030 0.157154
v -0.805549 2.876030 -0.000001
v -0.790070 2.876030 -0.157155
v -0.744229 2.876030 -0.308271
v -0.669789 2.876030 -0.447539
v -0.569608 2.876030 -0.569609
v -0.447538 2.876030 -0.669790
v -0.308269 2.876030 -0.744230
v -0.157154 2.876030 -0.790070
v -0.000000 3.807004 -0.000000
vn 0.0980 0.0000 -0.9952
vn 0.2903 0.0000 -0.9569
vn 0.4714 0.0000 -0.8819
vn 0.6344 0.0000 -0.7730
vn 0.7730 0.0000 -0.6344
vn 0.8819 0.0000 -0.4714
vn 0.9569 0.0000 -0.2903
vn 0.9952 0.0000 -0.0980
vn 0.9952 0.0000 0.0980
vn 0.9569 0.0000 0.2903
vn 0.8819 0.0000 0.4714
vn 0.7730 0.0000 0.6344
vn 0.6344 0.0000 0.7730
vn 0.4714 0.0000 0.8819
vn 0.2903 0.0000 0.9569
vn 0.0980 0.0000 0.9952
vn -0.0980 0.0000 0.9952
vn -0.2903 0.0000 0.9569
vn -0.4714 0.0000 0.8819
vn -0.6344 0.0000 0.7730
vn -0.7730 0.0000 0.6344
vn -0.8819 0.0000 0.4714
vn -0.9569 0.0000 0.2903
vn -0.9952 0.0000 0.0980
vn -0.9952 0.0000 -0.0980
vn -0.9569 0.0000 -0.2903
vn -0.8819 0.0000 -0.4714
vn -0.7730 0.0000 -0.6344
vn -0.6344 0.0000 -0.7730
vn -0.4714 0.0000 -0.8819
vn 0.0000 0.0000 1.0000
vn -0.2903 0.0000 -0.9569
vn -0.0980 0.0000 -0.9952
vn 0.0000 -1.0000 0.0000
vn -0.6683 0.6525 0.3572
vn 0.7541 0.6525 0.0743
vn -0.7251 0.6525 0.2200
vn 0.7251 0.6525 0.2200
vn -0.7541 0.6525 0.0743
vn 0.6683 0.6525 0.3572
vn -0.7541 0.6525 -0.0743
vn 0.5858 0.6525 0.4807
vn -0.7251 0.6525 -0.2200
vn 0.4807 0.6525 0.5858
vn -0.6683 0.6525 -0.3572
vn 0.3572 0.6525 0.6683
vn 0.0743 0.6525 -0.7541
vn -0.5858 0.6525 -0.4807
vn 0.2200 0.6525 0.7251
vn 0.2200 0.6525 -0.7251
vn -0.4807 0.6525 -0.5858
vn 0.0743 0.6525 0.7541
vn 0.3572 0.6525 -0.6683
vn -0.3572 0.6525 -0.6683
vn -0.0743 0.6525 0.7541
vn 0.4807 0.6525 -0.5858
vn -0.2200 0.6525 -0.7251
vn -0.2200 0.6525 0.7251
vn 0.5858 0.6525 -0.4807
vn -0.0743 0.6525 -0.7541
vn -0.3572 0.6525 0.6683
vn 0.6683 0.6525 -0.3572
vn -0.4807 0.6525 0.5858
vn 0.7251 0.6525 -0.2200
vn -0.5858 0.6525 0.4807
vn 0.7541 0.6525 -0.0743
s off
f 1//1 3//1 4//1 2//1
f 3//2 5//2 6//2 4//2
f 5//3 7//3 8//3 6//3
f 7//4 9//4 10//4 8//4
f 9//5 11//5 12//5 10//5
f 11//6 13//6 14//6 12//6
f 13//7 15//7 16//7 14//7
f 15//8 17//8 18//8 16//8
f 17//9 19//9 20//9 18//9
f 19//10 21//10 22//10 20//10
f 21//11 23//11 24//11 22//11
f 23//12 25//12 26//12 24//12
f 25//13 27//13 28//13 26//13
f 27//14 29//14 30//14 28//14
f 29//15 31//15 32//15 30//15
f 31//16 33//16 34//16 32//16
f 33//17 35//17 36//17 34//17
f 35//18 37//18 38//18 36//18
f 37//19 39//19 40//19 38//19
f 39//20 41//20 42//20 40//20
f 41//21 43//21 44//21 42//21
f 43//22 45//22 46//22 44//22
f 45//23 47//23 48//23 46//23
f 47//24 49//24 50//24 48//24
f 49//25 51//25 52//25 50//25
f 51//26 53//26 54//26 52//26
f 53//27 55//27 56//27 54//27
f 55//28 57//28 58//28 56//28
f 57//29 59//29 60//29 58//29
f 59//30 61//30 62//30 60//30
f 34//31 81//31 80//31 32//31
f 61//32 63//32 64//32 62//32
f 63//33 1//33 2//33 64//33
f 5//34 99//34 100//34 7//34
f 65//34 67//34 68//34 69//34 70//34 71//34 72//34 73//34 74//34 75//34 76//34 77//34 78//34 79//34 80//34 81//34 82//34 83//34 84//34 85//34 86//34 87//34 88//34 89//34 90//34 91//34 92//34 93//34 94//34 95//34 96//34 66//34
f 52//31 90//31 89//31 50//31
f 8//31 68//31 67//31 6//31
f 26//31 77//31 76//31 24//31
f 44//31 86//31 85//31 42//31
f 62//31 95//31 94//31 60//31
f 18//31 73//31 72//31 16//31
f 36//31 82//31 81//31 34//31
f 54//31 91//31 90//31 52//31
f 10//31 69//31 68//31 8//31
f 28//31 78//31 77//31 26//31
f 46//31 87//31 86//31 44//31
f 64//31 96//31 95//31 62//31
f 20//31 74//31 73//31 18//31
f 38//31 83//31 82//31 36//31
f 56//31 92//31 91//31 54//31
f 12//31 70//31 69//31 10//31
f 30//31 79//31 78//31 28//31
f 48//31 88//31 87//31 46//31
f 4//31 65//31 66//31 2//31
f 2//31 66//31 96//31 64//31
f 22//31 75//31 74//31 20//31
f 40//31 84//31 83//31 38//31
f 58//31 93//31 92//31 56//31
f 14//31 71//31 70//31 12//31
f 32//31 80//31 79//31 30//31
f 50//31 89//31 88//31 48//31
f 6//31 67//31 65//31 4//31
f 24//31 76//31 75//31 22//31
f 42//31 85//31 84//31 40//31
f 60//31 94//31 93//31 58//31
f 16//31 72//31 71//31 14//31
f 118//35 129//35 119//35
f 23//34 108//34 109//34 25//34
f 41//34 117//34 118//34 43//34
f 59//34 126//34 127//34 61//34
f 15//34 104//34 105//34 17//34
f 33//34 113//34 114//34 35//34
f 51//34 122//34 123//34 53//34
f 7//34 100//34 101//34 9//34
f 25//34 109//34 110//34 27//34
f 43//34 118//34 119//34 45//34
f 61//34 127//34 128//34 63//34
f 17//34 105//34 106//34 19//34
f 35//34 114//34 115//34 37//34
f 53//34 123//34 124//34 55//34
f 9//34 101//34 102//34 11//34
f 27//34 110//34 111//34 29//34
f 45//34 119//34 120//34 47//34
f 1//34 97//34 98//34 3//34
f 63//34 128//34 97//34 1//34
f 19//34 106//34 107//34 21//34
f 37//34 115//34 116//34 39//34
f 55//34 124//34 125//34 57//34
f 11//34 102//34 103//34 13//34
f 29//34 111//34 112//34 31//34
f 47//34 120//34 121//34 49//34
f 3//34 98//34 99//34 5//34
f 21//34 107//34 108//34 23//34
f 39//34 116//34 117//34 41//34
f 57//34 125//34 126//34 59//34
f 13//34 103//34 104//34 15//34
f 31//34 112//34 113//34 33//34
f 49//34 121//34 122//34 51//34
f 105//36 129//36 106//36
f 119//37 129//37 120//37
f 106//38 129//38 107//38
f 120//39 129//39 121//39
f 107//40 129//40 108//40
f 121//41 129//41 122//41
f 108//42 129//42 109//42
f 122//43 129//43 123//43
f 109//44 129//44 110//44
f 123//45 129//45 124//45
f 110//46 129//46 111//46
f 97//47 129//47 98//47
f 124//48 129//48 125//48
f 111//49 129//49 112//49
f 98//50 129//50 99//50
f 125//51 129//51 126//51
f 112//52 129//52 113//52
f 99//53 129//53 100//53
f 126//54 129//54 127//54
f 113//55 129//55 114//55
f 100//56 129//56 101//56
f 127//57 129//57 128//57
f 114//58 129//58 115//58
f 101//59 129//59 102//59
f 128//60 129//60 97//60
f 115//61 129//61 116//61
f 102//62 129//62 103//62
f 116//63 129//63 117//63
f 103//64 129//64 104//64
f 117//65 129//65 118//65
f 104//66 129//66 105//66
