# Blender v2.79 (sub 0) OBJ File: ''
# www.blender.org
mtllib longtrianglearrow.mtl
o Cylinder
v 0.000000 -3.000000 -0.200000
v 0.000000 3.000000 -0.200000
v 0.039018 3.000000 -0.196157
v 0.039018 -3.000000 -0.196157
v 0.076537 3.000000 -0.184776
v 0.076537 -3.000000 -0.184776
v 0.111114 3.000000 -0.166294
v 0.111114 -3.000000 -0.166294
v 0.141421 3.000000 -0.141421
v 0.141421 -3.000000 -0.141421
v 0.166294 3.000000 -0.111114
v 0.166294 -3.000000 -0.111114
v 0.184776 3.000000 -0.076537
v 0.184776 -3.000000 -0.076537
v 0.196157 3.000000 -0.039018
v 0.196157 -3.000000 -0.039018
v 0.200000 3.000000 0.000000
v 0.200000 -3.000000 -0.000000
v 0.196157 3.000000 0.039018
v 0.196157 -3.000000 0.039018
v 0.184776 3.000000 0.076537
v 0.184776 -3.000000 0.076537
v 0.166294 3.000000 0.111114
v 0.166294 -3.000000 0.111114
v 0.141421 3.000000 0.141421
v 0.141421 -3.000000 0.141421
v 0.111114 3.000000 0.166294
v 0.111114 -3.000000 0.166294
v 0.076537 3.000000 0.184776
v 0.076537 -3.000000 0.184776
v 0.039018 3.000000 0.196157
v 0.039018 -3.000000 0.196157
v 0.000000 3.000000 0.200000
v 0.000000 -3.000000 0.200000
v -0.039018 3.000000 0.196157
v -0.039018 -3.000000 0.196157
v -0.076537 3.000000 0.184776
v -0.076537 -3.000000 0.184776
v -0.111114 3.000000 0.166294
v -0.111114 -3.000000 0.166294
v -0.141421 3.000000 0.141421
v -0.141421 -3.000000 0.141421
v -0.166294 3.000000 0.111114
v -0.166294 -3.000000 0.111114
v -0.184776 3.000000 0.076537
v -0.184776 -3.000000 0.076537
v -0.196157 3.000000 0.039018
v -0.196157 -3.000000 0.039018
v -0.200000 3.000000 0.000000
v -0.200000 -3.000000 -0.000000
v -0.196157 3.000000 -0.039018
v -0.196157 -3.000000 -0.039018
v -0.184776 3.000000 -0.076537
v -0.184776 -3.000000 -0.076537
v -0.166294 3.000000 -0.111114
v -0.166294 -3.000000 -0.111114
v -0.141421 3.000000 -0.141422
v -0.141421 -3.000000 -0.141422
v -0.111114 3.000000 -0.166294
v -0.111114 -3.000000 -0.166294
v -0.076536 3.000000 -0.184776
v -0.076536 -3.000000 -0.184776
v -0.039018 3.000000 -0.196157
v -0.039018 -3.000000 -0.196157
v 0.000000 3.000000 -0.500000
v 0.000000 3.750000 0.000001
v 0.097545 3.000000 -0.490393
v 0.191342 3.000000 -0.461940
v 0.277785 3.000000 -0.415735
v 0.353553 3.000000 -0.353553
v 0.415735 3.000000 -0.277785
v 0.461940 3.000000 -0.191342
v 0.490393 3.000000 -0.097545
v 0.500000 3.000000 0.000000
v 0.490393 3.000000 0.097545
v 0.461940 3.000000 0.191342
v 0.415735 3.000000 0.277785
v 0.353553 3.000000 0.353553
v 0.277785 3.000000 0.415735
v 0.191342 3.000000 0.461940
v 0.097545 3.000000 0.490393
v 0.000000 3.000000 0.500000
v -0.097545 3.000000 0.490393
v -0.191342 3.000000 0.461940
v -0.277785 3.000000 0.415735
v -0.353554 3.000000 0.353553
v -0.415735 3.000000 0.277785
v -0.461940 3.000000 0.191341
v -0.490393 3.000000 0.097545
v -0.500000 3.000000 0.000000
v -0.490393 3.000000 -0.097546
v -0.461940 3.000000 -0.191342
v -0.415734 3.000000 -0.277786
v -0.353553 3.000000 -0.353554
v -0.277785 3.000000 -0.415735
v -0.191341 3.000000 -0.461940
v -0.097544 3.000000 -0.490393
vn 0.0980 0.0000 -0.9952
vn 0.2903 0.0000 -0.9569
vn 0.4714 0.0000 -0.8819
vn 0.6344 0.0000 -0.7730
vn 0.7730 0.0000 -0.6344
vn 0.8819 0.0000 -0.4714
vn 0.9569 0.0000 -0.2903
vn 0.9952 0.0000 -0.0980
vn 0.9952 -0.0000 0.0980
vn 0.9569 -0.0000 0.2903
vn 0.8819 -0.0000 0.4714
vn 0.7730 -0.0000 0.6344
vn 0.6344 -0.0000 0.7730
vn 0.4714 -0.0000 0.8819
vn 0.2903 -0.0000 0.9569
vn 0.0980 -0.0000 0.9952
vn -0.0980 -0.0000 0.9952
vn -0.2903 -0.0000 0.9569
vn -0.4714 -0.0000 0.8819
vn -0.6344 -0.0000 0.7730
vn -0.7730 -0.0000 0.6344
vn -0.8819 -0.0000 0.4714
vn -0.9569 -0.0000 0.2903
vn -0.9952 -0.0000 0.0980
vn -0.9952 0.0000 -0.0980
vn -0.9569 0.0000 -0.2903
vn -0.8819 0.0000 -0.4714
vn -0.7730 0.0000 -0.6344
vn -0.6344 0.0000 -0.7730
vn -0.4714 0.0000 -0.8819
vn 0.0000 1.0000 0.0000
vn -0.2903 0.0000 -0.9569
vn -0.0980 0.0000 -0.9952
vn 0.0000 -1.0000 0.0000
vn 0.0817 0.5528 -0.8293
vn 0.2419 0.5528 -0.7974
vn 0.3928 0.5528 -0.7349
vn 0.5286 0.5528 -0.6441
vn 0.6441 0.5528 -0.5286
vn 0.7349 0.5528 -0.3928
vn 0.7974 0.5528 -0.2419
vn 0.8293 0.5528 -0.0817
vn 0.8293 0.5528 0.0817
vn 0.7974 0.5528 0.2419
vn 0.7349 0.5528 0.3928
vn 0.6441 0.5528 0.5286
vn 0.5286 0.5528 0.6441
vn 0.3928 0.5528 0.7349
vn 0.2419 0.5528 0.7974
vn 0.0817 0.5528 0.8293
vn -0.0817 0.5528 0.8293
vn -0.2419 0.5528 0.7974
vn -0.3928 0.5528 0.7349
vn -0.5286 0.5528 0.6441
vn -0.6441 0.5528 0.5286
vn -0.7349 0.5528 0.3928
vn -0.7974 0.5528 0.2419
vn -0.8293 0.5528 0.0817
vn -0.8293 0.5528 -0.0817
vn -0.7974 0.5528 -0.2419
vn -0.7349 0.5528 -0.3928
vn -0.6441 0.5528 -0.5286
vn -0.5286 0.5528 -0.6441
vn -0.3928 0.5528 -0.7349
vn -0.2419 0.5528 -0.7974
vn -0.0817 0.5528 -0.8293
vn 0.0000 1.0000 0.0001
usemtl None
s 1
f 2//1 4//1 1//1
f 3//2 6//2 4//2
f 5//3 8//3 6//3
f 7//4 10//4 8//4
f 9//5 12//5 10//5
f 11//6 14//6 12//6
f 13//7 16//7 14//7
f 15//8 18//8 16//8
f 17//9 20//9 18//9
f 19//10 22//10 20//10
f 21//11 24//11 22//11
f 23//12 26//12 24//12
f 25//13 28//13 26//13
f 27//14 30//14 28//14
f 29//15 32//15 30//15
f 31//16 34//16 32//16
f 33//17 36//17 34//17
f 35//18 38//18 36//18
f 37//19 40//19 38//19
f 39//20 42//20 40//20
f 41//21 44//21 42//21
f 43//22 46//22 44//22
f 45//23 48//23 46//23
f 47//24 50//24 48//24
f 49//25 52//25 50//25
f 51//26 54//26 52//26
f 53//27 56//27 54//27
f 55//28 58//28 56//28
f 57//29 60//29 58//29
f 59//30 62//30 60//30
f 37//31 21//31 5//31
f 61//32 64//32 62//32
f 63//33 1//33 64//33
f 32//34 48//34 64//34
f 65//35 66//35 67//35
f 67//36 66//36 68//36
f 68//37 66//37 69//37
f 69//38 66//38 70//38
f 70//39 66//39 71//39
f 71//40 66//40 72//40
f 72//41 66//41 73//41
f 73//42 66//42 74//42
f 74//43 66//43 75//43
f 75//44 66//44 76//44
f 76//45 66//45 77//45
f 77//46 66//46 78//46
f 78//47 66//47 79//47
f 79//48 66//48 80//48
f 80//49 66//49 81//49
f 81//50 66//50 82//50
f 82//51 66//51 83//51
f 83//52 66//52 84//52
f 84//53 66//53 85//53
f 85//54 66//54 86//54
f 86//55 66//55 87//55
f 87//56 66//56 88//56
f 88//57 66//57 89//57
f 89//58 66//58 90//58
f 90//59 66//59 91//59
f 91//60 66//60 92//60
f 92//61 66//61 93//61
f 93//62 66//62 94//62
f 94//63 66//63 95//63
f 95//64 66//64 96//64
f 96//65 66//65 97//65
f 97//66 66//66 65//66
f 81//34 93//34 97//34
f 2//1 3//1 4//1
f 3//2 5//2 6//2
f 5//3 7//3 8//3
f 7//4 9//4 10//4
f 9//5 11//5 12//5
f 11//6 13//6 14//6
f 13//7 15//7 16//7
f 15//8 17//8 18//8
f 17//9 19//9 20//9
f 19//10 21//10 22//10
f 21//11 23//11 24//11
f 23//12 25//12 26//12
f 25//13 27//13 28//13
f 27//14 29//14 30//14
f 29//15 31//15 32//15
f 31//16 33//16 34//16
f 33//17 35//17 36//17
f 35//18 37//18 38//18
f 37//19 39//19 40//19
f 39//20 41//20 42//20
f 41//21 43//21 44//21
f 43//22 45//22 46//22
f 45//23 47//23 48//23
f 47//24 49//24 50//24
f 49//25 51//25 52//25
f 51//26 53//26 54//26
f 53//27 55//27 56//27
f 55//28 57//28 58//28
f 57//29 59//29 60//29
f 59//30 61//30 62//30
f 5//31 3//31 61//31
f 2//31 63//31 61//31
f 61//31 59//31 57//31
f 57//31 55//31 61//31
f 53//31 51//31 49//31
f 49//31 47//31 53//31
f 45//31 43//31 41//31
f 41//31 39//31 37//31
f 37//31 35//31 33//67
f 33//67 31//31 37//31
f 29//31 27//31 25//31
f 25//31 23//31 21//31
f 21//31 19//31 13//31
f 17//31 15//31 13//31
f 13//31 11//31 9//31
f 9//31 7//31 5//31
f 3//31 2//31 61//31
f 61//31 55//31 53//31
f 53//31 47//31 45//31
f 45//31 41//31 53//31
f 37//31 31//31 29//31
f 29//31 25//31 37//31
f 19//31 17//31 13//31
f 13//31 9//31 21//31
f 5//31 61//31 37//31
f 53//31 41//31 37//31
f 37//31 25//31 21//31
f 21//31 9//31 5//31
f 61//31 53//31 37//31
f 61//32 63//32 64//32
f 63//33 2//33 1//33
f 64//34 1//34 4//34
f 4//34 6//34 8//34
f 8//34 10//34 16//34
f 12//34 14//34 16//34
f 16//34 18//34 20//34
f 20//34 22//34 24//34
f 24//34 26//34 32//34
f 28//34 30//34 32//34
f 32//34 34//34 36//34
f 36//34 38//34 40//34
f 40//34 42//34 48//34
f 44//34 46//34 48//34
f 48//34 50//34 52//34
f 52//34 54//34 56//34
f 56//34 58//34 60//34
f 60//34 62//34 56//34
f 64//34 4//34 16//34
f 10//34 12//34 16//34
f 16//34 20//34 32//34
f 26//34 28//34 32//34
f 32//34 36//34 48//34
f 42//34 44//34 48//34
f 48//34 52//34 64//34
f 56//34 62//34 64//34
f 4//34 8//34 16//34
f 20//34 24//34 32//34
f 36//34 40//34 48//34
f 52//34 56//34 64//34
f 64//34 16//34 32//34
f 97//34 65//34 69//34
f 67//34 68//34 69//34
f 69//34 70//34 73//34
f 71//34 72//34 73//34
f 73//34 74//34 77//34
f 75//34 76//34 77//34
f 77//34 78//34 81//34
f 79//34 80//34 81//34
f 81//34 82//34 85//34
f 83//34 84//34 85//34
f 85//34 86//34 87//34
f 87//34 88//34 85//34
f 89//34 90//34 93//34
f 91//34 92//34 93//34
f 93//34 94//34 95//34
f 95//34 96//34 93//34
f 65//34 67//34 69//34
f 70//34 71//34 73//34
f 74//34 75//34 77//34
f 78//34 79//34 81//34
f 82//34 83//34 85//34
f 85//34 88//34 89//34
f 90//34 91//34 93//34
f 93//34 96//34 97//34
f 97//34 69//34 73//34
f 73//34 77//34 97//34
f 81//34 85//34 89//34
f 89//34 93//34 81//34
f 97//34 77//34 81//34
