# Blender v2.79 (sub 0) OBJ File: ''
# www.blender.org
mtllib unitzarrow.mtl
o Cylinder
v -0.000000 0.888889 -0.029629
v 0.005780 0.000000 -0.029060
v -0.000000 0.000000 -0.029630
v 0.005780 0.888889 -0.029060
v 0.011339 0.000000 -0.027374
v 0.011339 0.888889 -0.027374
v 0.016461 0.000000 -0.024636
v 0.016461 0.888889 -0.024636
v 0.020951 0.000000 -0.020951
v 0.020951 0.888889 -0.020951
v 0.024636 0.000000 -0.016461
v 0.024636 0.888889 -0.016461
v 0.027374 0.000000 -0.011339
v 0.027374 0.888889 -0.011339
v 0.029060 0.000000 -0.005780
v 0.029060 0.888889 -0.005780
v 0.029630 0.000000 -0.000000
v 0.029630 0.888889 0.000000
v 0.029060 -0.000000 0.005780
v 0.029060 0.888889 0.005781
v 0.027374 -0.000000 0.011339
v 0.027374 0.888889 0.011339
v 0.024636 -0.000000 0.016461
v 0.024636 0.888889 0.016461
v 0.020951 -0.000000 0.020951
v 0.020951 0.888889 0.020951
v 0.016461 -0.000000 0.024636
v 0.016461 0.888889 0.024636
v 0.011339 -0.000000 0.027374
v 0.011339 0.888889 0.027374
v 0.005780 -0.000000 0.029060
v 0.005780 0.888889 0.029060
v -0.000000 -0.000000 0.029630
v -0.000000 0.888889 0.029630
v -0.005780 -0.000000 0.029060
v -0.005780 0.888889 0.029060
v -0.011339 -0.000000 0.027374
v -0.011339 0.888889 0.027374
v -0.016461 -0.000000 0.024636
v -0.016461 0.888889 0.024636
v -0.020951 -0.000000 0.020951
v -0.020951 0.888889 0.020951
v -0.024636 -0.000000 0.016461
v -0.024636 0.888889 0.016461
v -0.027374 -0.000000 0.011339
v -0.027374 0.888889 0.011339
v -0.029060 -0.000000 0.005780
v -0.029060 0.888889 0.005781
v -0.029630 0.000000 -0.000000
v -0.029630 0.888889 0.000000
v -0.029060 0.000000 -0.005780
v -0.029060 0.888889 -0.005780
v -0.027374 0.000000 -0.011339
v -0.027374 0.888889 -0.011339
v -0.024636 0.000000 -0.016461
v -0.024636 0.888889 -0.016461
v -0.020951 0.000000 -0.020951
v -0.020951 0.888889 -0.020951
v -0.016461 0.000000 -0.024636
v -0.016461 0.888889 -0.024636
v -0.011339 0.000000 -0.027374
v -0.011339 0.888889 -0.027374
v -0.005780 0.000000 -0.029060
v -0.005780 0.888889 -0.029060
v -0.000000 0.888889 -0.074074
v -0.000000 1.000000 0.000000
v 0.014451 0.888889 -0.072651
v 0.028347 0.888889 -0.068435
v 0.041153 0.888889 -0.061590
v 0.052378 0.888889 -0.052378
v 0.061590 0.888889 -0.041153
v 0.068436 0.888889 -0.028347
v 0.072651 0.888889 -0.014451
v 0.074074 0.888889 0.000000
v 0.072651 0.888889 0.014451
v 0.068436 0.888889 0.028347
v 0.061590 0.888889 0.041153
v 0.052378 0.888889 0.052378
v 0.041153 0.888889 0.061591
v 0.028347 0.888889 0.068436
v 0.014451 0.888889 0.072651
v -0.000000 0.888889 0.074074
v -0.014451 0.888889 0.072651
v -0.028347 0.888889 0.068436
v -0.041153 0.888889 0.061591
v -0.052378 0.888889 0.052378
v -0.061590 0.888889 0.041153
v -0.068436 0.888889 0.028347
v -0.072651 0.888889 0.014451
v -0.074074 0.888889 0.000000
v -0.072651 0.888889 -0.014451
v -0.068436 0.888889 -0.028347
v -0.061590 0.888889 -0.041153
v -0.052378 0.888889 -0.052378
v -0.041153 0.888889 -0.061590
v -0.028347 0.888889 -0.068435
v -0.014451 0.888889 -0.072651
vn 0.0980 0.0000 -0.9952
vn 0.2903 0.0000 -0.9569
vn 0.4714 0.0000 -0.8819
vn 0.6344 0.0000 -0.7730
vn 0.7730 0.0000 -0.6344
vn 0.8819 0.0000 -0.4714
vn 0.9569 0.0000 -0.2903
vn 0.9952 0.0000 -0.0980
vn 0.9952 -0.0000 0.0980
vn 0.9569 -0.0000 0.2903
vn 0.8819 -0.0000 0.4714
vn 0.7730 -0.0000 0.6344
vn 0.6344 -0.0000 0.7730
vn 0.4714 -0.0000 0.8819
vn 0.2903 -0.0000 0.9569
vn 0.0980 -0.0000 0.9952
vn -0.0980 -0.0000 0.9952
vn -0.2903 -0.0000 0.9569
vn -0.4714 -0.0000 0.8819
vn -0.6344 -0.0000 0.7730
vn -0.7730 -0.0000 0.6344
vn -0.8819 -0.0000 0.4714
vn -0.9569 -0.0000 0.2903
vn -0.9952 -0.0000 0.0980
vn -0.9952 0.0000 -0.0980
vn -0.9569 0.0000 -0.2903
vn -0.8819 0.0000 -0.4714
vn -0.7730 0.0000 -0.6344
vn -0.6344 0.0000 -0.7730
vn -0.4714 0.0000 -0.8819
vn 0.0000 1.0000 0.0000
vn -0.2903 0.0000 -0.9569
vn -0.0980 0.0000 -0.9952
vn -0.0000 -1.0000 -0.0000
vn 0.0817 0.5528 -0.8293
vn 0.2419 0.5528 -0.7974
vn 0.3928 0.5528 -0.7349
vn 0.5286 0.5528 -0.6441
vn 0.6441 0.5528 -0.5286
vn 0.7349 0.5528 -0.3928
vn 0.7974 0.5528 -0.2419
vn 0.8293 0.5528 -0.0817
vn 0.8293 0.5528 0.0817
vn 0.7974 0.5528 0.2419
vn 0.7349 0.5528 0.3928
vn 0.6441 0.5528 0.5286
vn 0.5286 0.5528 0.6441
vn 0.3928 0.5528 0.7349
vn 0.2419 0.5528 0.7974
vn 0.0817 0.5528 0.8293
vn -0.0817 0.5528 0.8293
vn -0.2419 0.5528 0.7974
vn -0.3928 0.5528 0.7349
vn -0.5286 0.5528 0.6441
vn -0.6441 0.5528 0.5286
vn -0.7349 0.5528 0.3928
vn -0.7974 0.5528 0.2419
vn -0.8293 0.5528 0.0817
vn -0.8293 0.5528 -0.0817
vn -0.7974 0.5528 -0.2419
vn -0.7349 0.5528 -0.3928
vn -0.6441 0.5528 -0.5286
vn -0.5286 0.5528 -0.6441
vn -0.3928 0.5528 -0.7349
vn -0.2419 0.5528 -0.7974
vn -0.0817 0.5528 -0.8293
vn 0.0000 1.0000 0.0001
vn 0.0000 1.0000 -0.0001
vn 0.0000 -1.0000 -0.0001
usemtl None
s 1
f 1//1 2//1 3//1
f 4//2 5//2 2//2
f 6//3 7//3 5//3
f 8//4 9//4 7//4
f 10//5 11//5 9//5
f 12//6 13//6 11//6
f 14//7 15//7 13//7
f 16//8 17//8 15//8
f 18//9 19//9 17//9
f 20//10 21//10 19//10
f 22//11 23//11 21//11
f 24//12 25//12 23//12
f 26//13 27//13 25//13
f 28//14 29//14 27//14
f 30//15 31//15 29//15
f 32//16 33//16 31//16
f 34//17 35//17 33//17
f 36//18 37//18 35//18
f 38//19 39//19 37//19
f 40//20 41//20 39//20
f 42//21 43//21 41//21
f 44//22 45//22 43//22
f 46//23 47//23 45//23
f 48//24 49//24 47//24
f 50//25 51//25 49//25
f 52//26 53//26 51//26
f 54//27 55//27 53//27
f 56//28 57//28 55//28
f 58//29 59//29 57//29
f 60//30 61//30 59//30
f 38//31 22//31 6//31
f 62//32 63//32 61//32
f 64//33 3//33 63//33
f 31//34 47//34 63//34
f 65//35 66//35 67//35
f 67//36 66//36 68//36
f 68//37 66//37 69//37
f 69//38 66//38 70//38
f 70//39 66//39 71//39
f 71//40 66//40 72//40
f 72//41 66//41 73//41
f 73//42 66//42 74//42
f 74//43 66//43 75//43
f 75//44 66//44 76//44
f 76//45 66//45 77//45
f 77//46 66//46 78//46
f 78//47 66//47 79//47
f 79//48 66//48 80//48
f 80//49 66//49 81//49
f 81//50 66//50 82//50
f 82//51 66//51 83//51
f 83//52 66//52 84//52
f 84//53 66//53 85//53
f 85//54 66//54 86//54
f 86//55 66//55 87//55
f 87//56 66//56 88//56
f 88//57 66//57 89//57
f 89//58 66//58 90//58
f 90//59 66//59 91//59
f 91//60 66//60 92//60
f 92//61 66//61 93//61
f 93//62 66//62 94//62
f 94//63 66//63 95//63
f 95//64 66//64 96//64
f 96//65 66//65 97//65
f 97//66 66//66 65//66
f 81//34 93//34 97//34
f 1//1 4//1 2//1
f 4//2 6//2 5//2
f 6//3 8//3 7//3
f 8//4 10//4 9//4
f 10//5 12//5 11//5
f 12//6 14//6 13//6
f 14//7 16//7 15//7
f 16//8 18//8 17//8
f 18//9 20//9 19//9
f 20//10 22//10 21//10
f 22//11 24//11 23//11
f 24//12 26//12 25//12
f 26//13 28//13 27//13
f 28//14 30//14 29//14
f 30//15 32//15 31//15
f 32//16 34//16 33//16
f 34//17 36//17 35//17
f 36//18 38//18 37//18
f 38//19 40//19 39//19
f 40//20 42//20 41//20
f 42//21 44//21 43//21
f 44//22 46//22 45//22
f 46//23 48//23 47//23
f 48//24 50//24 49//24
f 50//25 52//25 51//25
f 52//26 54//26 53//26
f 54//27 56//27 55//27
f 56//28 58//28 57//28
f 58//29 60//29 59//29
f 60//30 62//30 61//30
f 6//31 4//31 62//31
f 1//31 64//67 62//31
f 62//31 60//67 58//31
f 58//31 56//31 62//31
f 54//31 52//31 50//31
f 50//31 48//31 54//31
f 46//31 44//68 42//31
f 42//31 40//31 38//31
f 38//31 36//67 34//68
f 34//68 32//67 38//31
f 30//31 28//31 26//31
f 26//31 24//31 22//31
f 22//31 20//31 14//31
f 18//31 16//31 14//31
f 14//31 12//31 10//31
f 10//31 8//31 6//31
f 4//31 1//31 62//31
f 62//31 56//31 54//31
f 54//31 48//31 46//31
f 46//31 42//31 54//31
f 38//31 32//67 30//31
f 30//31 26//31 38//31
f 20//31 18//31 14//31
f 14//31 10//31 22//31
f 6//31 62//31 38//31
f 54//31 42//31 38//31
f 38//31 26//31 22//31
f 22//31 10//31 6//31
f 62//31 54//31 38//31
f 62//32 64//32 63//32
f 64//33 1//33 3//33
f 63//34 3//34 2//34
f 2//34 5//34 7//34
f 7//34 9//34 15//34
f 11//34 13//34 15//34
f 15//34 17//34 19//34
f 19//34 21//34 23//34
f 23//34 25//34 31//34
f 27//34 29//34 31//34
f 31//34 33//34 35//34
f 35//34 37//34 39//34
f 39//34 41//34 47//34
f 43//34 45//34 47//34
f 47//34 49//34 51//34
f 51//34 53//34 55//34
f 55//34 57//34 59//34
f 59//34 61//34 55//34
f 63//34 2//34 15//34
f 9//34 11//34 15//34
f 15//34 19//34 31//34
f 25//34 27//34 31//34
f 31//34 35//34 47//34
f 41//34 43//34 47//34
f 47//34 51//34 63//34
f 55//34 61//34 63//34
f 2//34 7//34 15//34
f 19//34 23//34 31//34
f 35//34 39//34 47//34
f 51//34 55//34 63//34
f 63//34 15//34 31//34
f 97//34 65//34 69//34
f 67//34 68//34 69//34
f 69//34 70//34 73//34
f 71//34 72//34 73//34
f 73//34 74//34 77//34
f 75//34 76//34 77//34
f 77//34 78//34 81//34
f 79//34 80//34 81//34
f 81//34 82//34 85//34
f 83//34 84//69 85//34
f 85//34 86//34 87//34
f 87//34 88//34 85//34
f 89//34 90//34 93//34
f 91//34 92//34 93//34
f 93//34 94//34 95//34
f 95//34 96//34 93//34
f 65//34 67//34 69//34
f 70//34 71//34 73//34
f 74//34 75//34 77//34
f 78//34 79//34 81//34
f 82//34 83//34 85//34
f 85//34 88//34 89//34
f 90//34 91//34 93//34
f 93//34 96//34 97//34
f 97//34 69//34 73//34
f 73//34 77//34 97//34
f 81//34 85//34 89//34
f 89//34 93//34 81//34
f 97//34 77//34 81//34
